<svg width="32" height="32" viewBox="0 0 32 32" fill="none" xmlns="http://www.w3.org/2000/svg">
<path opacity="0.4" d="M26.6673 18.6667C26.6673 24.5574 21.8913 29.3334 16.0007 29.3334C10.11 29.3334 5.33398 24.5574 5.33398 18.6667C5.33398 13.9147 10.7527 7.1307 13.866 3.6267C15.0007 2.34937 17.0007 2.34937 18.1353 3.6267C18.806 4.56937 19.27 6.6467 19.5686 8.4947C19.7606 9.6867 21.3233 10.0174 21.9926 9.01203C22.3113 8.5347 23.022 8.5507 23.3047 9.0507C24.9793 12.0067 26.6673 16.4667 26.6673 18.6667Z" fill="#27AE60"/>
<path d="M11.9997 24C11.6583 24 11.317 23.8693 11.057 23.6093C10.5357 23.088 10.5357 22.2453 11.057 21.724L19.057 13.724C19.5783 13.2027 20.421 13.2027 20.9423 13.724C21.4637 14.2453 21.4637 15.088 20.9423 15.6093L12.9423 23.6093C12.6823 23.8693 12.341 24 11.9997 24Z" fill="#27AE60"/>
<path d="M20.666 24C21.7706 24 22.666 23.1046 22.666 22C22.666 20.8954 21.7706 20 20.666 20C19.5614 20 18.666 20.8954 18.666 22C18.666 23.1046 19.5614 24 20.666 24Z" fill="#27AE60"/>
<path d="M11.334 17.3334C12.4386 17.3334 13.334 16.4379 13.334 15.3334C13.334 14.2288 12.4386 13.3334 11.334 13.3334C10.2294 13.3334 9.33398 14.2288 9.33398 15.3334C9.33398 16.4379 10.2294 17.3334 11.334 17.3334Z" fill="#27AE60"/>
</svg>
