<svg width="34" height="34" viewBox="0 0 34 34" fill="none" xmlns="http://www.w3.org/2000/svg">
<path opacity="0.4" d="M3.21523 22.1354C0.842318 19.1179 0.842318 14.8807 3.21523 11.8632C6.0004 8.32292 10.5961 4.25 17.0008 4.25C23.4056 4.25 28.0012 8.32292 30.7864 11.8646C33.1593 14.8821 33.1593 19.1193 30.7864 22.1368C28.0012 25.6771 23.4056 29.75 17.0008 29.75C10.5961 29.75 6.0004 25.6771 3.21523 22.1354Z" fill="#EF8868"/>
<path d="M17 8.5C12.3052 8.5 8.5 12.3052 8.5 17C8.5 21.6948 12.3052 25.5 17 25.5C21.6948 25.5 25.5 21.6948 25.5 17C25.5 12.3052 21.6948 8.5 17 8.5ZM18.4167 18.4167C16.8512 18.4167 15.5833 17.1487 15.5833 15.5833C15.5833 14.0179 16.8512 12.75 18.4167 12.75C19.9821 12.75 21.25 14.0179 21.25 15.5833C21.25 17.1487 19.9821 18.4167 18.4167 18.4167Z" fill="#EF8868"/>
</svg>
