<svg width="44" height="41" viewBox="0 0 44 41" fill="none" xmlns="http://www.w3.org/2000/svg">
<circle cx="20" cy="21" r="16.88" stroke="#F8F8F8" stroke-width="6.24"/>
<circle cx="20" cy="21" r="16.88" stroke="#F8F8F8" stroke-width="6.24"/>
<path fill-rule="evenodd" clip-rule="evenodd" d="M23.7385 39.4134C33.8744 39.4134 42.1118 31.1212 42.1118 20.8667C42.1118 10.6122 33.8744 2.32002 23.7385 2.32002C13.6026 2.32002 5.36518 10.6122 5.36518 20.8667C5.36518 31.1212 13.6026 39.4134 23.7385 39.4134ZM23.7385 40.8C34.6517 40.8 43.4985 31.8756 43.4985 20.8667C43.4985 9.85781 34.6517 0.93335 23.7385 0.93335C12.8254 0.93335 3.97852 9.85781 3.97852 20.8667C3.97852 31.8756 12.8254 40.8 23.7385 40.8Z" fill="#F8F8F8"/>
<path d="M27.8807 12.8952L22.7441 24.7401L16.019 17.993L27.8807 12.8952Z" fill="#F8F8F8"/>
<path d="M20.951 23.8088L11.2422 27.9813L15.4466 18.2863L20.951 23.8088Z" stroke="#F8F8F8" stroke-width="1.17397"/>
</svg>
