<svg width="16" height="16" viewBox="0 0 16 16" fill="none" xmlns="http://www.w3.org/2000/svg">
<path d="M9.36888 6.71181C8.9968 7.08389 5.29631 10.7844 4.92423 11.1565C4.18007 11.9006 4.18007 13.1064 4.92423 13.8506C5.66839 14.5947 6.87416 14.5947 7.61832 13.8506C7.9904 13.4785 11.6909 9.77798 12.063 9.4059C12.8071 8.66174 12.8071 7.45597 12.063 6.71181C11.3188 5.96765 10.1124 5.96765 9.36888 6.71181Z" fill="#A3A8EF"/>
<path d="M12.063 6.71176C11.6909 6.33968 7.9904 2.63919 7.61832 2.26711C6.87416 1.52294 5.66839 1.52294 4.92423 2.26711C4.18007 3.01127 4.18007 4.21704 4.92423 4.9612C5.29631 5.33328 8.9968 9.03377 9.36888 9.40585C10.113 10.15 11.3188 10.15 12.063 9.40585C12.8071 8.66169 12.8071 7.45528 12.063 6.71176Z" fill="#A3A8EF"/>
</svg>
